# xmcd CD database file
#
# Track frame offsets:
#	150
#	24240
#	33658
#	52804
#	62650
#	76357
#	100805
#	113811
#	130252
#	150064
#	160841
#	176353
#	190800
#	208165
#	223504
#	244410
#
# Disc length: 3520 seconds
#
# Revision: 0
# Processed by: cddbd v1.5.2PL0 Copyright (c) Steve Scherf et al.
# Submitted via: CDex 1.91
#
DISCID=cb0dbe10
DTITLE=Various Artist - Sarengue Vol.1
DYEAR=2015
DGENRE=Salsa
TTITLE0=Takache - El Tiburou
TTITLE1=Festival
TTITLE2=Cantinero de Cuba
TTITLE3=Coco de Aqua
TTITLE4=Nene Baila
TTITLE5=Qua la Detengan
TTITLE6=Armando
TTITLE7=Isole
TTITLE8=Mas Que Nada
TTITLE9=Ci Sburou
TTITLE10=Bayla Guapa
TTITLE11=Por La Plata
TTITLE12=Amor de Mis Amores
TTITLE13=Rapunzel
TTITLE14=I Will Survive
TTITLE15=Song From A Secret Garden
EXTD=YEAR: 2015
EXTT0=
EXTT1=
EXTT2=
EXTT3=
EXTT4=
EXTT5=
EXTT6=
EXTT7=
EXTT8=
EXTT9=
EXTT10=
EXTT11=
EXTT12=
EXTT13=
EXTT14=
EXTT15=
PLAYORDER=
